<?xml version="1.0" encoding="UTF-8"?><svg id="Vrstva_2" xmlns="http://www.w3.org/2000/svg" xmlns:xlink="http://www.w3.org/1999/xlink" viewBox="0 0 445.28 338.89"><defs><style>.cls-1{fill:#1d1d1b;}</style></defs><path class="cls-1" d="M14,.61S-53.5,252.5,118,301h150.39S433.45,255.7,372.22,.85c0,0-63.28,9.13-96,87.39H110S83.5,13.72,14,.61Z"/><image width="512" height="512" transform="translate(20 23) scale(.67)" xlink:href="cat-whiskers (1).png"/><path class="cls-1" d="M394,131l-3,27s26-1,26,22-27,34-44,38l-18,30s89.12-5.22,89.56-68.61c0,0,4.44-46.39-50.56-48.39Z"/><path class="cls-1" d="M45,312H357s-1,17-21,17h-57.17s-.45,9.26-16.14,9.26H131s-6.5,.24-8.5-9.76H58.5s-13-1-13.5-16.5Z"/></svg>